<svg height="511pt" viewBox="0 0 511 511.99921" width="511pt" xmlns="http://www.w3.org/2000/svg"><path d="m22.429688 490.070312c29.238281 29.238282 76.816406 29.238282 106.058593 0 16.820313-16.820312 24.488281-40.132812 21.195313-63.621093l42.4375-42.4375h.003906l38.886719-38.890625 143.53125-20.503906c5.203125-.742188 9.636719-4.152344 11.6875-8.988282l125.03125-294.726562c.007812-.023438.015625-.046875.027343-.070313 5.148438-12.339843-7.308593-24.867187-19.695312-19.59375l-294.722656 125.03125c-4.835938 2.050781-8.246094 6.484375-8.988282 11.6875l-20.503906 143.53125-81.34375 81.339844c-22.554687-3.183594-46.292968 3.875-63.605468 21.183594-29.238282 29.238281-29.238282 76.816406 0 106.058593zm159.085937-137.878906-21.210937-21.210937 21.210937-21.210938 21.210937 21.210938zm180.40625-56.070312-132.679687 18.953125-5.300782-5.304688 229.585938-229.585937zm70.394531-237.148438-229.589844 229.585938-5.300781-5.300782 18.953125-132.679687zm-293.222656 293.21875 21.210938 21.214844-22.273438 22.273438c-2.753906-4.15625-5.941406-8.066407-9.542969-11.667969-3.632812-3.632813-7.546875-6.808594-11.671875-9.539063zm-95.453125 53.03125c17.546875-17.542968 46.089844-17.546875 63.636719 0 17.554687 17.554688 17.554687 46.082032 0 63.632813-17.546875 17.546875-46.089844 17.546875-63.636719 0-17.542969-17.542969-17.542969-46.089844 0-63.632813zm0 0"/><path d="m86.0625 426.433594c-5.859375-5.859375-15.355469-5.859375-21.214844 0-5.855468 5.855468-5.855468 15.351562 0 21.210937 5.859375 5.855469 15.355469 5.855469 21.214844 0 5.855469-5.859375 5.855469-15.355469 0-21.210937zm0 0"/></svg>